<?xml version="1.0" encoding="utf-8"?>
<!-- Generator: Adobe Illustrator 22.1.0, SVG Export Plug-In . SVG Version: 6.00 Build 0)  -->
<svg version="1.1" id="Слой_1" xmlns="http://www.w3.org/2000/svg" xmlns:xlink="http://www.w3.org/1999/xlink" x="0px" y="0px"
	 viewBox="0 0 595.3 595.3" style="enable-background:new 0 0 595.3 595.3;" xml:space="preserve">
<style type="text/css">
	.st0{fill:#FFFFFF;}
	.st1{fill:none;stroke:#FFFFFF;stroke-width:5;stroke-miterlimit:10;}
</style>
<symbol  id="Новый_символ" viewBox="-150.8 -144.2 301.6 288.3">
	<path class="st0" d="M140.1,24.2c18.3,32.1,13,68.1-14.3,93.9c-20.7,19.5-44.2,30.6-72,24.4c-25-5.7-42.5-22.3-54.3-45.6
		c-12.9-25.4-19.1-53.2-24.3-81.4c-5.3-28.7-11.5-57-24.1-83.1c-9.7-20.2-23.5-36.3-43-46.4c-15.3-8-27.8-4.8-38.8,9.4
		c-11.6,15-16.5,31.9-14.2,50.8c1.3,11,5.1,21,12.2,30.6l-2.5,5.6c-22.9-31.1-20.5-68.8,6.9-97.5c24.1-25.2,52.7-35,85.2-25.4
		c28.6,8.5,50.7,27.1,67.5,52.4c16.9,25.6,26.2,54.7,32.8,85c5,22.9,10.3,45.8,16.3,68.4c4.3,16.3,11.9,30.9,25.1,41.5
		c11.5,9.2,25.7,7.8,33.8-3.8c15.2-21.8,17.5-44.9,6.9-69c-0.6-1.3-1.5-2.4-2.5-4.1L140.1,24.2z"/>
	<circle class="st1" cx="2.5" cy="-0.2" r="138.5"/>
</symbol>
<use xlink:href="#Новый_символ"  width="301.6" height="288.3" id="XMLID_1_" x="-150.8" y="-144.2" transform="matrix(1.9627 0 0 -1.9627 297.5398 289.7057)" style="overflow:visible;"/>
</svg>
