<?xml version="1.0" encoding="utf-8"?>
<!-- Generator: Adobe Illustrator 22.1.0, SVG Export Plug-In . SVG Version: 6.00 Build 0)  -->
<svg version="1.1" id="Слой_2" xmlns="http://www.w3.org/2000/svg" xmlns:xlink="http://www.w3.org/1999/xlink" x="0px" y="0px"
	 viewBox="0 0 1024 1024" style="enable-background:new 0 0 1024 1024;" xml:space="preserve">
<style type="text/css">
	.st0{fill:#EA5F54;}
	.st1{fill:#C4756C;}
	.st2{fill:#C6432B;}
	.st3{fill:#D45A46;}
	.st4{fill:#F3977D;}
	.st5{fill:#D85440;}
	.st6{fill:#EC6658;}
	.st7{fill:#EC6348;}
	.st8{fill:#CF5B52;}
	.st9{fill:#BF8573;}
	.st10{fill:#E85D4A;}
	.st11{fill:#EE795D;}
	.st12{fill:#8C6155;}
	.st13{fill:#F18B6B;}
	.st14{fill:#EE7454;}
	.st15{fill:#F08368;}
</style>
<g id="XMLID_1_">
	<g>
		<polygon class="st0" points="471,375.6 408.2,361 440.2,347.1 		"/>
		<polygon class="st1" points="649.8,362.5 675.8,391.8 642.9,391.8 		"/>
		<polygon class="st1" points="533.6,231.8 503,197.4 532.5,205.3 		"/>
		<polygon class="st1" points="434,719 434,719 383.5,753.2 375.1,711.2 		"/>
		<polygon class="st1" points="536.8,305.1 540.6,391.8 471,375.6 440.2,347.1 		"/>
		<polygon class="st1" points="198.2,580.9 221.8,592.7 159.2,613.6 		"/>
		<polygon class="st1" points="1024,612.6 1024,783.6 960.1,711.7 		"/>
		<polygon class="st2" points="1024,512 1024,612.6 911.2,612.6 923.8,470.5 		"/>
		<polygon class="st3" points="1024,783.6 1024,1024 759,1024 837,902.8 885.6,902.1 893.2,815.6 960.1,711.7 		"/>
		<polygon class="st4" points="1024,0 1024,512 923.8,470.5 954.6,123.6 802.3,189.8 677.3,244.1 532.5,205.3 530.3,155.1 
			440.3,126.8 327.6,0 		"/>
		<polygon class="st5" points="1024,612.6 960.1,711.7 907.7,652.7 911.2,612.6 		"/>
		<polygon class="st6" points="907.7,652.7 960.1,711.7 893.2,815.6 		"/>
		<polygon class="st2" points="954.6,123.6 923.8,470.5 773.3,408 802.3,189.8 		"/>
		<polygon class="st7" points="923.8,470.5 911.2,612.6 872,612.6 709.3,429.5 773.3,408 		"/>
		<polygon class="st8" points="911.2,612.6 907.7,652.7 872,612.6 		"/>
		<polygon class="st9" points="907.7,652.7 893.2,815.6 837,902.8 478.7,908.5 453.5,801.6 593.1,801.6 492.1,679.8 540.2,647.3 
			591.6,612.6 872,612.6 		"/>
		<polygon class="st10" points="837,902.8 893.2,815.6 885.6,902.1 		"/>
		<polygon class="st11" points="709.3,429.5 872,612.6 591.6,612.6 627.8,456.7 		"/>
		<polygon class="st2" points="837,902.8 759,1024 488.1,948.6 478.7,908.5 		"/>
		<polygon class="st12" points="802.3,189.8 773.3,408 734.1,391.8 675.8,391.8 649.8,362.5 677.3,244.1 		"/>
		<polygon class="st8" points="773.3,408 709.3,429.5 675.8,391.8 734.1,391.8 		"/>
		<polygon class="st12" points="759,1024 0,1024 0,792.6 173.8,792.6 173.8,792.6 189.6,884.1 311.8,801.6 393.1,801.6 414.6,909.6 
			478.7,908.5 488.1,948.6 		"/>
		<polygon class="st10" points="709.3,429.5 627.8,456.7 642.9,391.8 675.8,391.8 		"/>
		<polygon class="st5" points="677.3,244.1 649.8,362.5 581.5,285.7 		"/>
		<polygon class="st10" points="677.3,244.1 581.5,285.7 533.6,231.8 532.5,205.3 		"/>
		<polygon class="st8" points="649.8,362.5 642.9,391.8 540.6,391.8 536.8,305.1 581.5,285.7 		"/>
		<polygon class="st13" points="642.9,391.8 627.8,456.7 527.6,490.3 540.6,391.8 		"/>
		<polygon class="st10" points="627.8,456.7 591.6,612.6 540.2,647.3 512,608.1 527.6,490.3 		"/>
		<polygon class="st5" points="492.1,679.8 593.1,801.6 453.5,801.6 434,719 		"/>
		<polygon class="st13" points="581.5,285.7 536.8,305.1 533.6,231.8 		"/>
		<polygon class="st6" points="540.6,391.8 527.6,490.3 376.8,540.8 352.1,511 471,375.6 		"/>
		<polygon class="st13" points="540.2,647.3 492.1,679.8 429.4,604.2 512,608.1 		"/>
		<polygon class="st9" points="533.6,231.8 536.8,305.1 440.2,347.1 188.4,113.1 503,197.4 		"/>
		<polygon class="st13" points="532.5,205.3 503,197.4 440.3,126.8 530.3,155.1 		"/>
		<polygon class="st14" points="376.8,540.8 527.6,490.3 512,608.1 429.4,604.2 		"/>
		<polygon class="st7" points="503,197.4 188.4,113.1 246.4,65.9 440.3,126.8 		"/>
		<polygon class="st7" points="429.4,604.2 492.1,679.8 434,719 434,719 375.1,711.2 353.1,600.6 		"/>
		<polygon class="st11" points="453.5,801.6 478.7,908.5 414.6,909.6 393.1,801.6 		"/>
		<polygon class="st15" points="471,375.6 352.1,511 323.1,476.1 248.1,539 218.1,443.6 408.2,361 		"/>
		<polygon class="st10" points="434,719 453.5,801.6 393.1,801.6 383.5,753.2 		"/>
		<polygon class="st6" points="440.3,126.8 246.4,65.9 327.6,0 		"/>
		<polygon class="st11" points="440.2,347.1 408.2,361 175.1,306.8 129.3,161.1 188.4,113.1 		"/>
		<polygon class="st9" points="429.4,604.2 353.1,600.6 375.1,711.2 260.9,696.2 273.6,618.6 221.8,592.7 376.8,540.8 		"/>
		<polygon class="st13" points="408.2,361 218.1,443.6 175.1,306.8 		"/>
		<polygon class="st13" points="393.1,801.6 311.8,801.6 383.5,753.2 		"/>
		<polygon class="st10" points="383.5,753.2 311.8,801.6 243.6,801.6 260.9,696.2 375.1,711.2 		"/>
		<polygon class="st15" points="352.1,511 376.8,540.8 221.8,592.7 198.2,580.9 248.1,539 		"/>
		<polygon class="st2" points="323.1,476.1 352.1,511 248.1,539 		"/>
		<polygon class="st2" points="327.6,0 246.4,65.9 36.6,0 		"/>
		<polygon class="st4" points="311.8,801.6 189.6,884.1 173.8,792.6 144.9,625.6 159.2,613.6 218.1,690.6 260.9,696.2 243.6,801.6 
					"/>
		<polygon class="st2" points="273.6,618.6 260.9,696.2 218.1,690.6 159.2,613.6 221.8,592.7 		"/>
		<polygon class="st6" points="218.1,443.6 248.1,539 198.2,580.9 131.3,547.4 120.7,485.9 		"/>
		<polygon class="st5" points="246.4,65.9 188.4,113.1 129.3,161.1 72.5,207.2 36.6,0 		"/>
		<polygon class="st3" points="175.1,306.8 218.1,443.6 120.7,485.9 86.1,286.1 		"/>
		<polygon class="st13" points="198.2,580.9 159.2,613.6 144.9,625.6 131.3,547.4 		"/>
		<polygon class="st2" points="129.3,161.1 175.1,306.8 86.1,286.1 72.5,207.2 		"/>
		<polygon class="st2" points="144.9,625.6 173.8,792.6 173.8,792.6 0,792.6 0,747.1 		"/>
		<polygon class="st7" points="131.3,547.4 144.9,625.6 0,747.1 0,266.1 86.1,286.1 120.7,485.9 60.6,512 		"/>
		<polygon class="st8" points="120.7,485.9 131.3,547.4 60.6,512 		"/>
		<polygon class="st10" points="86.1,286.1 0,266.1 72.5,207.2 		"/>
		<polygon class="st9" points="36.6,0 72.5,207.2 0,266.1 0,0 		"/>
	</g>
</g>
</svg>
