<?xml version="1.0" encoding="utf-8"?>
<!-- Generator: Adobe Illustrator 22.1.0, SVG Export Plug-In . SVG Version: 6.00 Build 0)  -->
<svg version="1.1" id="Слой_2" xmlns="http://www.w3.org/2000/svg" xmlns:xlink="http://www.w3.org/1999/xlink" x="0px" y="0px"
	 viewBox="0 0 1024 1024" style="enable-background:new 0 0 1024 1024;" xml:space="preserve">
<style type="text/css">
	.st0{fill:#EA5F54;}
	.st1{fill:#C4756C;}
	.st2{fill:#C6432B;}
	.st3{fill:#D45A46;}
	.st4{fill:#F3977D;}
	.st5{fill:#D85440;}
	.st6{fill:#EC6658;}
	.st7{fill:#EC6348;}
	.st8{fill:#CF5B52;}
	.st9{fill:#BF8573;}
	.st10{fill:#E85D4A;}
	.st11{fill:#EE795D;}
	.st12{fill:#8C6155;}
	.st13{fill:#F18B6B;}
	.st14{fill:#EE7454;}
	.st15{fill:#F08368;}
	.st16{fill:#A0A4A8;}
	.st17{fill:#7D9CB2;}
	.st18{fill:#A8D5DD;}
	.st19{fill:#7DA6B5;}
	.st20{fill:#668BAA;}
	.st21{fill:#4B8E9F;}
	.st22{fill:#9CADB2;}
	.st23{fill:#6D989F;}
	.st24{fill:#74A9BA;}
	.st25{fill:#B5C1C4;}
	.st26{fill:#87BECC;}
	.st27{fill:#4A85A5;}
	.st28{fill:#8AA3A8;}
	.st29{fill:#A3C6CE;}
	.st30{fill:#403C56;}
	.st31{fill:#444151;}
	.st32{fill:#625A67;}
	.st33{fill:#3A445E;}
	.st34{fill:#4A4168;}
	.st35{fill:#6D607F;}
	.st36{fill:#564E5E;}
	.st37{fill:#483B51;}
	.st38{fill:#5656A2;}
	.st39{fill:#6D72A8;}
	.st40{fill:#464C66;}
	.st41{fill:#494A9A;}
	.st42{fill:#5F5B94;}
	.st43{fill:#605984;}
	.st44{fill:#5C678F;}
	.st45{fill:#887A93;}
</style>
<g id="XMLID_3_">
	<g>
		<polygon class="st30" points="1024,905.1 1024,1024 912.5,1024 		"/>
		<polygon class="st31" points="1024,743 1024,905.1 939.5,834.2 		"/>
		<polygon class="st32" points="1024,249.6 1024,743 971,497.1 933.5,519.6 951.5,789.6 909.5,809 837.5,748.5 788.4,827.6 
			759.4,790.1 		"/>
		<polygon class="st31" points="1024,55.3 1024,249.6 956,161.4 956,81.6 		"/>
		<polygon class="st33" points="1024,0 1024,55.3 993.5,0 		"/>
		<polygon class="st34" points="993.5,0 1024,55.3 956,81.6 956,161.4 873.7,54.8 		"/>
		<polygon class="st35" points="956,161.4 1024,249.6 759.4,790.1 738.4,762.9 738.4,669.8 768.5,710.1 992,269.1 764.1,269.1 
			756.5,260.2 806,216.6 956,221.1 		"/>
		<polygon class="st34" points="971,497.1 1024,743 939.5,834.2 909.5,809 951.5,789.6 933.5,519.6 		"/>
		<path class="st34" d="M1024,905.1L912.5,1024L788.3,865.2l21.5-10l50.2,64.8l79.6-85.9L1024,905.1z M950,913.3
			c0-3.7-3-6.8-6.8-6.8c-3.7,0-6.8,3-6.8,6.8s3,6.8,6.8,6.8C946.9,920.1,950,917,950,913.3z"/>
		<polygon class="st30" points="993.5,0 873.7,54.8 831.5,0 		"/>
		<path class="st36" d="M992,269.1l-223.5,441l-30.1-40.3V442l105.1-79.1l-79.4-93.7H992z M830,516.6c0-8.3-6.7-15-15-15
			c-8.3,0-15,6.7-15,15c0,8.3,6.7,15,15,15C823.3,531.6,830,524.9,830,516.6z"/>
		<polygon class="st37" points="956,161.4 956,221.1 806,216.6 756.5,260.2 712.5,208.1 855.5,146.1 846.5,113.1 692.3,184.4 
			664,150.8 873.7,54.8 		"/>
		<circle class="st38" cx="943.2" cy="913.3" r="6.8"/>
		<polygon class="st36" points="939.5,834.2 860,920.1 809.8,855.2 909.5,809 		"/>
		<polygon class="st37" points="788.3,865.2 912.5,1024 666.5,1024 755.7,880.3 		"/>
		<polygon class="st33" points="909.5,809 809.8,855.2 788.4,827.6 837.5,748.5 		"/>
		<path class="st32" d="M831.5,0l42.3,54.8l-209.8,96l-32-37.8l-244.5,105l34.5,43.5l242-110.8l28.4,33.5L408.6,315.6h-16.3L326,230
			L404,95.1L831.5,0z M620.7,91.7c0-6.4-5.2-11.6-11.6-11.6c-6.4,0-11.6,5.2-11.6,11.6c0,6.4,5.2,11.6,11.6,11.6
			C615.5,103.4,620.7,98.2,620.7,91.7z"/>
		<polygon class="st39" points="846.5,113.1 855.5,146.1 712.5,208.1 692.3,184.4 		"/>
		<polygon class="st40" points="764.1,269.1 843.5,362.8 738.4,442 738.4,315.6 693.8,315.6 746.5,269.1 		"/>
		<polygon class="st36" points="831.5,0 404,95.1 326,230 246.5,127.2 380,80.1 369.5,55.3 195.7,122.9 137,0 		"/>
		<circle class="st38" cx="815" cy="516.6" r="15"/>
		<polygon class="st41" points="788.4,827.6 809.8,855.2 788.3,865.2 775.3,848.6 		"/>
		<polygon class="st30" points="788.4,827.6 775.3,848.6 748,813.6 759.4,790.1 		"/>
		<polygon class="st40" points="775.3,848.6 788.3,865.2 755.7,880.3 		"/>
		<polygon class="st38" points="748,813.6 775.3,848.6 755.7,880.3 738.4,888.3 738.4,833.2 		"/>
		<polygon class="st42" points="756.5,260.2 764.1,269.1 746.5,269.1 		"/>
		<polygon class="st41" points="738.4,762.9 759.4,790.1 748,813.6 738.4,801.3 		"/>
		<polygon class="st31" points="712.5,208.1 756.5,260.2 746.5,269.1 689,269.1 575.7,315.6 473.7,315.6 471.5,312.6 		"/>
		<path class="st36" d="M738.4,888.3l17.3-8L666.5,1024H254l-19.8-75.4l81.3-60.3h62.1L521,989.1L738.4,888.3z M322.3,973.7
			c0-6.4-5.2-11.6-11.6-11.6c-6.4,0-11.6,5.2-11.6,11.6s5.2,11.6,11.6,11.6C317,985.3,322.3,980.1,322.3,973.7z"/>
		<polygon class="st40" points="748,813.6 738.4,833.2 738.4,801.3 		"/>
		<polygon class="st34" points="746.5,269.1 693.8,315.6 575.7,315.6 689,269.1 		"/>
		<polygon class="st30" points="738.4,888.3 521,989.1 377.6,888.3 449.7,888.3 504.5,927.6 604.1,888.3 		"/>
		<polygon class="st43" points="738.4,833.2 738.4,888.3 604.1,888.3 737,836 		"/>
		<path class="st32" d="M738.4,801.3v31.9L737,836l-132.8,52.3H449.7l-68.3-48.9l91.5-67.8l-43.5-35.2L578,707.1L472.4,510.9
			l42.2-37.2l66.9,86.4l-20,15L738.4,801.3z M586.9,812c0-13.2-10.7-24-24-24c-13.2,0-24,10.7-24,24s10.7,24,24,24
			C576.2,836,586.9,825.3,586.9,812z"/>
		<polygon class="st34" points="738.4,762.9 738.4,801.3 561.5,575.1 581.4,560.1 		"/>
		<polygon class="st35" points="738.4,669.8 738.4,762.9 581.4,560.1 629.4,524 		"/>
		<polygon class="st44" points="738.4,442 738.4,669.8 629.4,524 		"/>
		<polygon class="st45" points="738.4,315.6 738.4,442 629.4,524 561.1,432.6 693.8,315.6 		"/>
		<polygon class="st43" points="712.5,208.1 471.5,312.6 473.7,315.6 408.6,315.6 692.3,184.4 		"/>
		<polygon class="st38" points="693.8,315.6 561.1,432.6 497.7,347.6 575.7,315.6 		"/>
		<polygon class="st40" points="664,150.8 422,261.6 387.5,218.1 632,113.1 		"/>
		<polygon class="st43" points="561.1,432.6 629.4,524 581.4,560.1 514.6,473.7 		"/>
		<path class="st38" d="M609.1,80.1c6.4,0,11.6,5.2,11.6,11.6c0,6.4-5.2,11.6-11.6,11.6c-6.4,0-11.6-5.2-11.6-11.6
			C597.5,85.3,602.7,80.1,609.1,80.1z"/>
		<polygon class="st38" points="604.1,888.3 504.5,927.6 449.7,888.3 		"/>
		<path class="st39" d="M563,788.1c13.2,0,24,10.7,24,24s-10.7,24-24,24c-13.2,0-24-10.7-24-24S549.7,788.1,563,788.1z"/>
		<polygon class="st44" points="472.4,510.9 578,707.1 429.5,736.4 392.5,706.5 468.5,693.6 408.2,567.5 		"/>
		<polygon class="st41" points="575.7,315.6 497.7,347.6 473.7,315.6 		"/>
		<polygon class="st39" points="561.1,432.6 514.6,473.7 436.5,372.8 497.7,347.6 		"/>
		<polygon class="st30" points="436.5,372.8 514.6,473.7 472.4,510.9 405,385.7 		"/>
		<polygon class="st34" points="473.7,315.6 497.7,347.6 436.5,372.8 396.6,321.2 408.6,315.6 		"/>
		<polygon class="st45" points="473,771.6 381.5,839.4 279.2,766.1 429.5,736.4 		"/>
		<polygon class="st35" points="472.4,510.9 408.2,567.5 335.1,414.4 405,385.7 		"/>
		<polygon class="st34" points="408.2,567.5 468.5,693.6 392.5,706.5 318.5,646.6 		"/>
		<polygon class="st42" points="449.7,888.3 377.6,888.3 345.7,865.9 381.5,839.4 		"/>
		<polygon class="st44" points="396.6,321.2 436.5,372.8 405,385.7 375.5,330.9 		"/>
		<polygon class="st31" points="392.5,706.5 429.5,736.4 279.2,766.1 226.1,728.1 275.2,684.8 318.5,719.1 347.4,714.2 		"/>
		<polygon class="st42" points="408.6,315.6 396.6,321.2 392.3,315.6 		"/>
		<path class="st45" d="M408.2,567.5l-89.7,79.2L230,575.1l-21,27.4l83.3,67.2l-17.1,15.1l-76.7-60.9v-68.8l63-110.5l73.6-30.2
			L408.2,567.5z M322.3,551.9c0-9.3-7.6-16.9-16.9-16.9s-16.9,7.5-16.9,16.9s7.5,16.9,16.9,16.9S322.3,561.2,322.3,551.9z"/>
		<polygon class="st43" points="375.5,330.9 405,385.7 335.1,414.4 287.8,315.6 392.3,315.6 396.6,321.2 		"/>
		<polygon class="st40" points="392.5,706.5 347.4,714.2 292.3,669.7 318.5,646.6 		"/>
		<polygon class="st30" points="326,230 392.3,315.6 287.8,315.6 282.7,304.9 		"/>
		<polygon class="st44" points="279.2,766.1 381.5,839.4 345.7,865.9 220.2,777.8 		"/>
		<polygon class="st33" points="369.5,55.3 380,80.1 246.5,127.2 326,230 282.7,304.9 195.7,122.9 		"/>
		<polygon class="st41" points="377.6,888.3 315.5,888.3 345.7,865.9 		"/>
		<polygon class="st42" points="347.4,714.2 318.5,719.1 275.2,684.8 292.3,669.7 		"/>
		<polygon class="st36" points="220.2,777.8 345.7,865.9 315.5,888.3 218.4,888.3 198.5,812.2 198.5,782.1 		"/>
		<polygon class="st31" points="335.1,414.4 261.5,444.6 198.5,555.1 198.5,450.7 276.6,315.6 287.8,315.6 		"/>
		<path class="st38" d="M310.6,962.1c6.4,0,11.6,5.2,11.6,11.6s-5.2,11.6-11.6,11.6c-6.4,0-11.6-5.2-11.6-11.6
			S304.2,962.1,310.6,962.1z"/>
		<polygon class="st38" points="230,575.1 318.5,646.6 292.3,669.7 209,602.5 		"/>
		<path class="st38" d="M305.4,535c9.3,0,16.9,7.5,16.9,16.9s-7.6,16.9-16.9,16.9s-16.9-7.6-16.9-16.9S296,535,305.4,535z"/>
		<polygon class="st38" points="315.5,888.3 234.2,948.6 218.4,888.3 		"/>
		<polygon class="st42" points="282.7,304.9 287.8,315.6 276.6,315.6 		"/>
		<path class="st37" d="M195.7,122.9l87,182l-6.2,10.7h-78.1v135.1l-84,145.4l16.6,63.9L89.2,630L0,269.1v-70.1L195.7,122.9z
			 M113,285.6c0-13.3-10.8-24-24-24c-13.3,0-24,10.8-24,24c0,13.3,10.7,24,24,24C102.3,309.6,113,298.9,113,285.6z"/>
		<polygon class="st43" points="279.2,766.1 220.2,777.8 198.5,762.5 198.5,752.5 226.1,728.1 		"/>
		<polygon class="st38" points="276.6,315.6 198.5,450.7 198.5,315.6 		"/>
		<polygon class="st43" points="275.2,684.8 226.1,728.1 198.5,708.3 198.5,623.9 		"/>
		<polygon class="st32" points="234.2,948.6 254,1024 225.5,1024 210.5,966.2 		"/>
		<polygon class="st40" points="218.4,888.3 234.2,948.6 210.5,966.2 163.2,783.7 192.1,758.1 198.5,762.5 198.5,782.1 191,783.6 
			198.5,812.2 198.5,888.3 		"/>
		<polygon class="st41" points="226.1,728.1 198.5,752.5 198.5,708.3 		"/>
		<polygon class="st33" points="210.5,966.2 225.5,1024 186.5,1024 178.1,990.2 		"/>
		<polygon class="st42" points="198.5,762.5 220.2,777.8 198.5,782.1 		"/>
		<polygon class="st41" points="198.5,812.2 218.4,888.3 198.5,888.3 		"/>
		<polygon class="st31" points="163.2,783.7 210.5,966.2 178.1,990.2 133.6,809.8 		"/>
		<polygon class="st42" points="198.5,782.1 198.5,812.2 191,783.6 		"/>
		<polygon class="st42" points="198.5,752.5 198.5,762.5 192.1,758.1 		"/>
		<polygon class="st34" points="198.5,708.3 198.5,752.5 192.1,758.1 148.6,727.5 131.1,660 		"/>
		<polygon class="st33" points="198.5,623.9 198.5,708.3 131.1,660 114.5,596.1 198.5,450.7 198.5,555.1 171.5,602.5 		"/>
		<polygon class="st41" points="198.5,555.1 198.5,623.9 171.5,602.5 		"/>
		<polygon class="st35" points="137,0 195.7,122.9 0,199.1 0,146.1 		"/>
		<polygon class="st41" points="148.6,727.5 192.1,758.1 163.2,783.7 		"/>
		<polygon class="st40" points="178.1,990.2 186.5,1024 132.5,1024 		"/>
		<polygon class="st35" points="133.6,809.8 178.1,990.2 132.5,1024 0,927.6 		"/>
		<polygon class="st39" points="148.6,727.5 163.2,783.7 133.6,809.8 105.8,697.4 		"/>
		<polygon class="st38" points="131.1,660 148.6,727.5 105.8,697.4 89.2,630 		"/>
		<polygon class="st31" points="137,0 0,146.1 0,0 		"/>
		<path class="st32" d="M105.8,697.4l27.8,112.3L0,927.6V623.1L105.8,697.4z M65,749.8c0-3.7-3-6.8-6.8-6.8c-3.7,0-6.8,3-6.8,6.8
			s3,6.8,6.8,6.8C62,756.5,65,753.5,65,749.8z"/>
		<polygon class="st34" points="132.5,1024 0,1024 0,927.6 		"/>
		<circle class="st38" cx="89" cy="285.6" r="24"/>
		<polygon class="st36" points="105.8,697.4 0,623.1 0,566.1 89.2,630 		"/>
		<polygon class="st34" points="0,269.1 89.2,630 0,566.1 		"/>
		<circle class="st38" cx="58.3" cy="749.8" r="6.8"/>
	</g>
</g>
</svg>
