<?xml version="1.0" encoding="utf-8"?>
<!-- Generator: Adobe Illustrator 22.1.0, SVG Export Plug-In . SVG Version: 6.00 Build 0)  -->
<svg version="1.1" id="Слой_2" xmlns="http://www.w3.org/2000/svg" xmlns:xlink="http://www.w3.org/1999/xlink" x="0px" y="0px"
	 viewBox="0 0 1024 1024" style="enable-background:new 0 0 1024 1024;" xml:space="preserve">
<style type="text/css">
	.st0{fill:#EA5F54;}
	.st1{fill:#C4756C;}
	.st2{fill:#C6432B;}
	.st3{fill:#D45A46;}
	.st4{fill:#F3977D;}
	.st5{fill:#D85440;}
	.st6{fill:#EC6658;}
	.st7{fill:#EC6348;}
	.st8{fill:#CF5B52;}
	.st9{fill:#BF8573;}
	.st10{fill:#E85D4A;}
	.st11{fill:#EE795D;}
	.st12{fill:#8C6155;}
	.st13{fill:#F18B6B;}
	.st14{fill:#EE7454;}
	.st15{fill:#F08368;}
	.st16{fill:#4A85A5;}
	.st17{fill:#4B8E9F;}
	.st18{fill:#6D989F;}
	.st19{fill:#A0A4A8;}
	.st20{fill:#7D9CB2;}
	.st21{fill:#A8D5DD;}
	.st22{fill:#7DA6B5;}
	.st23{fill:#668BAA;}
	.st24{fill:#9CADB2;}
	.st25{fill:#74A9BA;}
	.st26{fill:#B5C1C4;}
	.st27{fill:#87BECC;}
	.st28{fill:#8AA3A8;}
	.st29{fill:#A3C6CE;}
</style>
<g id="XMLID_2_">
	<g>
		<path class="st16" d="M651.9,543.8v4.6c0,1.1,0,2.2-0.1,3.3c-3.5,0-7.1-0.1-10.5-0.3C644.8,548.9,648.4,546.4,651.9,543.8z"/>
		<path class="st16" d="M532.7,330.9L463.1,365c0-0.7,0-1.4,0-2.1c0-10.9,0.9-21.5,2.7-31.9H532.7z"/>
		<path class="st16" d="M534.5,602.5h31.1c-11.2,7.3-22.2,14.3-33,21C533.2,616.7,533.9,609.7,534.5,602.5z"/>
		<path class="st16" d="M641.3,551.4c3.5,0.2,7,0.3,10.5,0.3c-1.7,28.2-25.3,50.8-54,50.8h-32.2
			C590.3,586.5,615.8,569.4,641.3,551.4z"/>
		<path class="st16" d="M631.8,411.6L560.2,528c-5.9-3.3-11.6-6.8-17.1-10.7c3.8-35.6,7.7-71.8,11.5-105.7H631.8z"/>
		<polygon class="st17" points="826,888.9 849.4,896.3 840.8,962.1 823,962.1 		"/>
		<path class="st17" d="M132.3,359l31.6,52.6h-38.3V385C125.6,375.6,128,366.7,132.3,359z"/>
		<polygon class="st17" points="463,743 463,815 383.8,815 423,751.3 		"/>
		<path class="st17" d="M514.5,602.5l23.9-39c-1.4,13.3-2.6,26.4-3.8,39H514.5z"/>
		<path class="st17" d="M651.9,385v26.6h-20.1l19.8-32.3C651.8,381.2,651.9,383.1,651.9,385z"/>
		<path class="st17" d="M532.7,330.9l33.2-16.2c-0.6,5.2-1.2,10.6-1.9,16.2H532.7z"/>
		<path class="st17" d="M560.2,528l-21.8,35.5c1.5-15.1,3.1-30.6,4.8-46.3C548.7,521.1,554.3,524.7,560.2,528z"/>
		<path class="st17" d="M791.1,431.3c12.2,6.8,20.4,15,25.4,24.2c-32.4,57.4-94,96.2-164.6,96.2c0,0-0.1,0-0.1,0
			c0.1-1.1,0.1-2.2,0.1-3.3v-4.6C700.7,508.8,749,470.7,791.1,431.3z"/>
		<path class="st17" d="M469.4,411.6H367.8l95.3-46.6C463.2,381.1,465.4,396.7,469.4,411.6z"/>
		<path class="st18" d="M469.4,411.6h85.3c-3.8,33.8-7.8,70.1-11.5,105.7C507.5,492.1,481,454.9,469.4,411.6z"/>
		<polygon class="st18" points="367.8,411.6 210.2,488.7 163.9,411.6 		"/>
		<path class="st18" d="M791.1,431.3c17.5-16.4,33.8-32.9,48.7-49.6c-2.6,26.6-10.8,51.6-23.3,73.8
			C811.5,446.3,803.3,438,791.1,431.3z"/>
		<path class="st18" d="M641.3,551.4c-25.5,18-50.9,35.1-75.6,51.1h-31.1c1.2-12.6,2.5-25.6,3.8-39l21.8-35.5
			C584.5,541.5,612,549.8,641.3,551.4z"/>
		<path class="st19" d="M1024,0v1024H0V0H1024z M924.5,920.1l25.5-651l-36-1.9c6.8-18.7,10.5-37.1,10.5-55.1
			c0-223.5-264-142.5-264-142.5l-214.8,49.7l-24.7-64L388.7,91l18.9,37.1L235,168c-1.1-30.4-26.3-54.9-56.9-54.9h-28.1
			c-31.3,0-56.9,25.6-56.9,57v30.8l-48.9,11.3L132.3,359c-4.3,7.7-6.7,16.6-6.7,26v26.6h-74v285l111,82.5c0,33,0,69.1,0,107.9
			c0,206.3,126,64.4,165.4,15.1l80.6,59.9l158.7-162.3c10.3,7.2,21.2,12.7,31,16.8v84.1c0,6.6,5.4,12,12,12h129.4
			c6.6,0,12-5.4,12-12v-35.3l74.3,23.5l-3,73.2h17.8l8.7-65.8L924.5,920.1z"/>
		<path class="st20" d="M950,269.1l-25.5,651l-75.1-23.8L897,535h-56.2L826,888.9l-74.3-23.5v-94.1c0-6.6-5.4-12-12-12H610.3
			c-1.4,0-2.8,0.3-4.1,0.7L731,632.4c0,0,120.6-112.6,85.5-177c12.5-22.2,20.7-47.2,23.3-73.8c34.1-38.1,60.4-76.8,74.1-114.4
			L950,269.1z"/>
		<path class="st21" d="M924.5,212.1c0,18-3.7,36.4-10.5,55.1l-102.4-5.3c-33.5-52.9-92.5-87.9-159.7-87.9
			c-93.4,0-171,67.8-186.2,156.9H179.6c-20.3,0-38.1,11.4-47.4,28.1L44.1,212.1L93,200.8v27.3c0,31.3,25.6,56.9,56.9,56.9h28.1
			c31.3,0,56.9-25.6,56.9-56.9v-58c0-0.7,0-1.4,0-2.1l172.6-39.9L463,237l21.2-18l-38.6-99.7l214.8-49.7
			C660.5,69.6,924.5-11.4,924.5,212.1z"/>
		<path class="st22" d="M811.6,261.9l102.4,5.3c-13.7,37.6-40.1,76.3-74.1,114.4c0.6-6.2,0.9-12.5,0.9-18.8
			C840.8,325.7,830.1,291.1,811.6,261.9z"/>
		<polygon class="st23" points="897,535 849.4,896.3 826,888.9 840.8,535 		"/>
		<path class="st24" d="M840.8,362.8c0,6.4-0.3,12.6-0.9,18.8c-14.9,16.7-31.3,33.3-48.7,49.6c-22-12.2-56.9-19.7-109.6-19.7h-29.6
			V385c0-1.9-0.1-3.8-0.3-5.7l53.9-87.7L659,269.1l-93.2,45.6c4.6-39.5,7.7-65.1,7.7-65.1l238,12.3
			C830.1,291.1,840.8,325.7,840.8,362.8z"/>
		<path class="st21" d="M816.5,455.5c35.1,64.4-85.5,177-85.5,177L606.2,760c-3.4,1.3-6.1,4-7.3,7.4l-31.6,32.3
			c-22.2-15.5-41.8-38.9-41.8-73.2c0-19.2,2.8-56.9,7-103c10.8-6.8,21.8-13.8,33-21h32.2c28.6,0,52.3-22.6,54-50.8c0,0,0.1,0,0.1,0
			C722.5,551.7,784.1,512.9,816.5,455.5z"/>
		<path class="st23" d="M811.6,261.9l-238-12.3c0,0-3.1,25.6-7.7,65.1l-33.2,16.2h-67C480.9,241.8,558.5,174,651.9,174
			C719.1,174,778.1,209.1,811.6,261.9z"/>
		<path class="st25" d="M751.7,865.4v35.3c0,6.6-5.4,12-12,12H610.3c-6.6,0-12-5.4-12-12v-84.1c18,7.6,32.3,10.4,32.3,10.4
			L751.7,865.4z"/>
		<path class="st26" d="M751.7,771.3v94.1l-121.1-38.3c0,0-14.3-2.9-32.3-10.4v-45.3c0-1.3,0.2-2.6,0.6-3.8l7.3-7.4
			c1.3-0.5,2.7-0.7,4.1-0.7h129.4C746.3,759.3,751.7,764.7,751.7,771.3z"/>
		<path class="st27" d="M705.5,291.6l-53.9,87.7c-2.8-27.1-26-48.4-53.8-48.4H564c0.6-5.6,1.3-11,1.9-16.2l93.2-45.6L705.5,291.6z"
			/>
		<path class="st25" d="M681.5,411.6c52.6,0,87.6,7.5,109.6,19.7c-42.1,39.4-90.4,77.5-139.2,112.5V411.6H681.5z"/>
		<path class="st27" d="M651.9,411.6v132.2c-3.5,2.5-7.1,5.1-10.6,7.6c-29.3-1.6-56.8-9.9-81-23.4l71.5-116.4H651.9z"/>
		<path class="st20" d="M651.6,379.3l-19.8,32.3h-77.1c3.3-29.4,6.5-56.9,9.2-80.7h33.9C625.7,330.9,648.8,352.2,651.6,379.3z"/>
		<path class="st22" d="M567.3,799.8l31.6-32.3c-0.4,1.2-0.6,2.5-0.6,3.8v45.3C588.5,812.5,577.6,807,567.3,799.8z"/>
		<path class="st28" d="M567.3,799.8L408.5,962.1L328,902.2c7.3-9.1,11.6-15.1,11.6-15.1l44.3-72.1H463v-72l-40,8.3l59.8-97.4
			c15.8-9.4,32.4-19.6,49.7-30.4c-4.2,46.2-7,83.9-7,103C525.5,760.9,545.1,784.3,567.3,799.8z"/>
		<path class="st22" d="M532.7,330.9H564c-2.8,23.8-5.9,51.3-9.2,80.7h-85.3c-4-14.9-6.2-30.5-6.3-46.6L532.7,330.9z"/>
		<path class="st25" d="M543.2,517.3c-1.6,15.6-3.3,31.1-4.8,46.3l-23.9,39H278.5l-68.4-113.8l157.6-77.1h101.6
			C481,454.9,507.5,492.1,543.2,517.3z"/>
		<path class="st29" d="M514.5,602.5h20.1c-0.7,7.2-1.3,14.2-2,21c-17.3,10.8-34,21-49.7,30.4L514.5,602.5z"/>
		<path class="st24" d="M514.5,602.5l-31.6,51.4C407.5,698.8,353,726.6,353,726.6l-74.5-124.1H514.5z"/>
		<polygon class="st28" points="445.7,119.3 484.3,219 463,237 407.6,128.1 		"/>
		<path class="st26" d="M482.9,653.9L423,751.3L289,779v36h94.8l-44.3,72.1c0,0-4.3,6-11.6,15.1l-165.4-123c0-75.4,0-135.5,0-179.4
			c5.4,1.8,11.1,2.8,17.1,2.8h98.9L353,726.6C353,726.6,407.5,698.8,482.9,653.9z"/>
		<path class="st28" d="M179.6,330.9h286.1c-1.8,10.4-2.7,21-2.7,31.9c0,0.7,0,1.4,0,2.1l-95.3,46.6H163.9L132.3,359
			C141.5,342.3,159.3,330.9,179.6,330.9z"/>
		<polygon class="st17" points="445.7,119.3 407.6,128.1 388.7,91 421,55.3 		"/>
		<polygon class="st23" points="423,751.3 383.8,815 289,815 289,779 		"/>
		<path class="st21" d="M162.6,779.1l165.4,123c-39.4,49.3-165.4,191.3-165.4-15.1C162.6,848.2,162.6,812.2,162.6,779.1z"/>
		<path class="st27" d="M278.5,602.5h-98.9c-6,0-11.7-1-17.1-2.8c0-57.9,0-87.7,0-87.7l47.6-23.3L278.5,602.5z"/>
		<path class="st23" d="M235,170.1v58c0,31.3-25.6,56.9-56.9,56.9h-28.1c-31.3,0-56.9-25.6-56.9-56.9v-27.3L235,168
			C235,168.7,235,169.4,235,170.1z"/>
		<path class="st26" d="M235,168L93,200.8v-30.8c0-31.3,25.6-57,56.9-57h28.1C208.7,113.1,233.9,137.6,235,168z"/>
		<path class="st29" d="M163.9,411.6l46.3,77.1L162.6,512c0,0,0,29.8,0,87.7c-21.4-7.2-37-27.5-37-51.3V411.6H163.9z"/>
		<path class="st20" d="M162.6,599.7c0,43.9,0,104,0,179.4l-111-82.5v-285h74v136.8C125.6,572.2,141.1,592.5,162.6,599.7z"/>
	</g>
</g>
</svg>
